<?xml version="1.0" standalone="no"?>
<!DOCTYPE svg PUBLIC "-//W3C//DTD SVG 20010904//EN"
 "http://www.w3.org/TR/2001/REC-SVG-20010904/DTD/svg10.dtd">
<svg version="1.0" xmlns="http://www.w3.org/2000/svg"
 width="512.000000pt" height="512.000000pt" viewBox="0 0 512.000000 512.000000"
 preserveAspectRatio="xMidYMid meet">
<metadata>
Created by potrace 1.11, written by Peter Selinger 2001-2013
</metadata>
<g transform="translate(0.000000,512.000000) scale(0.100000,-0.100000)"
fill="#000000" stroke="none">
<path d="M2325 5114 c-16 -2 -80 -11 -142 -20 -422 -57 -875 -255 -1228 -534
-103 -81 -314 -292 -395 -395 -227 -286 -405 -649 -490 -997 -55 -223 -65
-319 -65 -608 0 -289 10 -385 65 -608 85 -348 263 -711 490 -997 81 -103 292
-314 395 -395 288 -228 646 -404 997 -490 222 -55 318 -65 608 -65 289 0 385
10 608 65 348 85 711 263 997 490 103 81 314 292 395 395 227 286 405 649 490
997 55 223 65 319 65 608 0 289 -10 385 -65 608 -85 348 -263 711 -490 997
-81 103 -292 314 -395 395 -349 276 -777 464 -1220 536 -95 15 -545 28 -620
18z m-765 -2449 l0 -875 425 0 425 0 0 -110 0 -110 -555 0 -555 0 0 985 0 985
130 0 130 0 0 -875z m1410 0 l0 -875 430 0 430 0 0 -110 0 -110 -555 0 -555 0
0 985 0 985 125 0 125 0 0 -875z"/>
</g>
</svg>
